# xmcd CD database file
#
# Track frame offsets:
#	150
#	13263
#	25579
#	38132
#	52849
#	66830
#	80884
#	94854
#	108346
#	120352
#	133246
#	145918
#	162153
#	175672
#	190556
#	204140
#	217712
#	228004
#	242052
#	255378
#
# Disc length: 3591 seconds
#
# Revision: 3
# Processed by: cddbd v1.5.2PL0 Copyright (c) Steve Scherf et al.
# Submitted via: CDex 1.79
#
DISCID=fa0e0514
DTITLE=Various Artist - Diggin' Deeper: 200 Legendary Blues Treasures [disc 2]
DYEAR=2004
DGENRE=Blues
TTITLE0=Lightnin' Hopkins - L.A. Blues
TTITLE1=Brownie McGhee - Me and My Dog Blues
TTITLE2=Mississippi John Hurt - Blessed Be the Name
TTITLE3=Blind Willie McTell - Rough Alley Blues
TTITLE4=Kokomo Arnold - Fool Man Blues
TTITLE5=Sleepy John Estes - Poor Man's Friend
TTITLE6=Muddy Waters - I Be's Troubled
TTITLE7=Ma Rainey - Night Time Blues
TTITLE8=John Lee Williamson - Bad Luck Blues
TTITLE9=Blind Boy Fuller and Sonny Terry - Shake Down Blues
TTITLE10=Big Bill Broonzy - Long Tall Mama
TTITLE11=John Lee Hooker - Low-Down Midnite Boogie
TTITLE12=Jimmy Yancey - The Fives
TTITLE13=Memphis Minnie - Bumble Bee
TTITLE14=Joe Turner - S.K. Blues, Part 1
TTITLE15=Bukka White - Shake 'Em On Down
TTITLE16=Robert Johnson - Stop Breaking Down Blues
TTITLE17=Arthur Crudup - Raised to My Hand
TTITLE18=Leadbelly - Packing Trunk
TTITLE19=Bessie Smith - Keeps On a Rainin'
EXTD=10CD: Documents/Membran 222024-321 (2004), EAN 4011222220240, ISBN 978-3-87562-765-8. YEAR: 2004
EXTT0=(Wilson Smith)
EXTT1=(Walter "Brownie" McGhee)
EXTT2=(John Hurt)
EXTT3=(Willie McTell)
EXTT4=(James Arnold)
EXTT5=(T. Model)
EXTT6=(McKinley Morganfield)
EXTT7=(trad./Ma Rainey)
EXTT8=(John Lee Williamson)
EXTT9=(Sonny Terry)
EXTT10=(Bill Broonzy)
EXTT11=(John Lee Hooker)
EXTT12=(Jimmy Yancey)
EXTT13=(McCoy/E. Lawler)
EXTT14=(King)
EXTT15=(Bukka White)
EXTT16=(Robert Johnson)
EXTT17=(Arthur Crudup/R. Knowling)
EXTT18=(Huddie Ledbetter)
EXTT19=(S. Williams/M. Kortlander)
PLAYORDER=
